# xmcd
#
# Track frame offsets:
# 150
# 16279
# 26776
# 42530
# 55364
# 67609
# 83205
# 95069
# 109118
# 125250
# 142165
# 154339
# 168079
# 184006
# 197288
# 220741
# 235488
# 250986
#
# Disc length: 3573 seconds
#
#
# Revision: 0
# Processed by: cddbd v1.4PL0 Copyright (c) Steve Scherf et al.
# Submitted via: FreeRIP 2.00 
#
DISCID=f90df312
DTITLE=George Strait - George Strait - Strait Out Of The Box Disc 3
DYEAR=1995
DGENRE=Country
TTITLE0=Baby Blue
TTITLE1=If You Ain't Lovin' (You Ain't Livin')
TTITLE2=Baby's Gotten Good At Goodbye
TTITLE3=Bigger Man Than Me
TTITLE4=Hollywood Squares
TTITLE5=What's Going On In Your World
TTITLE6=Ace In The Hole
TTITLE7=Love Without End, Amen
TTITLE8=Drinking Champagne
TTITLE9=I've Come To Expect It From You
TTITLE10=If I Know Me
TTITLE11=You Know Me Better Than That
TTITLE12=The Chill Of An Early Fall
TTITLE13=Lovesick Blues
TTITLE14=Milk Cow Blues
TTITLE15=Gone As A Girl Can Get
TTITLE16=So Much Like My Dad
TTITLE17=Trains Make Me Lonesome
EXTD=MCA
EXTT0=
EXTT1=
EXTT2=
EXTT3=
EXTT4=
EXTT5=
EXTT6=
EXTT7=
EXTT8=
EXTT9=
EXTT10=
EXTT11=
EXTT12=
EXTT13=
EXTT14=
EXTT15=
EXTT16=
EXTT17=
PLAYORDER=
